<svg width="744" height="265" viewBox="0 0 744 265" fill="none" xmlns="http://www.w3.org/2000/svg">
<g opacity="0.5">
<path d="M868.081 -111.3C865.256 84.1864 791.065 267.833 510.96 236.489C215.672 203.445 72.8576 421.278 1.26567 642.011H0.914062C72.5348 421.133 215.445 203.096 511.021 236.179C790.785 267.487 864.905 84.0288 867.732 -111.3H868.081Z" fill="black"/>
<path d="M857.136 -111.3C870.034 75.4778 806.35 249.383 513.282 226.701C193.62 201.96 59.7512 421.696 -0.528317 642.011H-0.882812C59.4313 421.551 193.372 201.626 513.339 226.391C806.042 249.047 869.668 75.3331 856.785 -111.3H857.136Z" fill="black"/>
<path d="M848.28 -111.3C875.562 66.8132 820.611 231.234 515.608 216.912C170.831 200.722 47.1449 422.143 -1.41304 642.011H-1.76465C46.8077 421.996 170.563 200.397 515.64 216.6C820.28 230.906 875.17 66.6556 847.914 -111.3H848.28Z" fill="black"/>
<path d="M841.601 -111.3C881.772 58.1692 833.759 213.412 517.939 207.124C147.258 199.738 35.0509 422.6 -1.34167 642.011H-1.68176C34.7223 422.456 146.987 199.425 517.965 206.811C833.393 213.091 881.363 58.009 841.229 -111.3H841.601Z" fill="black"/>
<path d="M837.208 -111.3C888.642 49.5537 845.707 195.94 520.253 197.335C122.854 199.038 23.571 423.058 -0.241101 642.011H-0.589844C23.228 422.91 122.563 198.728 520.267 197.023C845.312 195.63 888.19 49.4038 836.804 -111.3H837.208Z" fill="black"/>
<path d="M835.064 -111.3C895.984 41.0027 856.346 178.851 522.573 187.547C97.5815 198.619 12.7722 423.492 1.92101 642.011H1.57227C12.4379 423.344 97.2846 198.317 522.573 187.234C855.922 178.554 895.52 40.8606 834.655 -111.3H835.064Z" fill="black"/>
<path d="M835.339 -111.3C903.841 32.5344 865.622 162.171 524.894 177.759C71.4014 198.503 2.79537 423.882 5.23364 642.011H4.8849C2.4351 423.734 71.093 198.206 524.877 177.446C865.172 161.879 903.343 32.3897 834.904 -111.3H835.339Z" fill="black"/>
<path d="M838.036 -111.3C912.072 24.1695 873.417 145.934 527.214 167.963C69.184 197.121 0.0620923 401.453 7.82653 608.265C8.25116 619.516 8.88522 630.765 9.72872 642.011H9.37999C8.55379 630.782 7.92067 619.54 7.48067 608.285C-0.301058 401.318 68.8699 196.829 527.19 167.658C872.941 145.653 911.541 24.0299 837.589 -111.3H838.036Z" fill="black"/>
<path d="M843.031 -111.3C920.396 15.9259 879.614 130.178 529.537 158.179C69.8904 194.946 -2.69579 379.282 8.58195 573.632C9.90196 596.366 12.3691 619.229 15.499 642.011H15.1474C12.0203 619.236 9.55611 596.379 8.23034 573.658C-3.05317 379.153 69.5792 194.657 529.517 157.869C879.112 129.907 919.834 15.8019 842.547 -111.3H843.031Z" fill="black"/>
<path d="M850.354 -111.3C928.73 7.83995 884.109 114.941 531.859 148.391C70.3882 192.213 -6.19547 359.848 7.81164 542.27C10.3421 575.247 15.8355 608.709 22.5508 642.011H22.1934C15.4839 608.722 9.9934 575.272 7.46289 542.293C-6.55863 359.716 70.0828 191.928 531.833 148.071C883.587 114.678 928.139 7.70821 849.841 -111.3H850.354Z" fill="black"/>
<path d="M859.889 -111.3C936.882 -0.0625816 886.825 100.257 534.177 138.602C70.5217 189.017 -10.3304 342.722 5.77774 513.985C9.73201 556.021 19.5254 599.12 30.9358 642.011H30.5755C19.1738 599.127 9.38615 556.055 5.43188 514.023C-10.6907 342.598 70.2046 188.741 534.148 138.292C886.297 100.002 936.262 -0.189164 859.347 -111.3H859.889Z" fill="black"/>
<path d="M871.23 -111.3C944.37 -7.74553 887.624 86.1704 536.501 128.814C70.2427 185.439 -14.9902 327.514 2.71462 488.471C8.21947 538.488 23.659 590.344 40.6866 642.011H40.3205C23.2901 590.357 7.86209 538.527 2.36013 488.512C-15.3649 327.385 69.9112 185.165 536.454 128.504C887.067 85.925 943.724 -7.86953 870.657 -111.3H871.23Z" fill="black"/>
<path d="M884.317 -111.3C951.183 -15.1727 886.488 72.7084 538.82 119.023C69.5303 181.541 -20.1123 313.884 -1.20563 465.399C5.9161 522.445 28.4168 582.219 51.8427 642.011H51.468C28.0537 582.242 5.57023 522.492 -1.56302 465.446C-20.4813 313.758 69.219 181.272 538.78 118.716C885.917 72.4708 950.517 -15.289 883.706 -111.3H884.317Z" fill="black"/>
<path d="M898.458 -111.3C956.714 -22.3054 883.295 59.913 541.138 109.235C68.3984 177.381 -25.6336 301.554 -5.83633 444.456C2.57658 505.165 31.5361 569.295 60.7407 633.933L64.3779 642.011H63.9946L60.4063 634.06C31.2047 569.406 2.23648 505.271 -6.17067 444.505C-25.991 301.43 68.0843 177.126 541.107 108.925C882.71 59.6831 956.017 -22.4191 897.827 -111.3H898.458Z" fill="black"/>
<path d="M913.211 -111.3C960.694 -29.1023 878.049 47.8125 543.458 99.4463C66.8708 172.995 -31.496 290.293 -11.0618 425.352C-1.94849 485.578 30.7809 549.353 64.1414 614.343C68.87 623.544 73.5842 632.766 78.284 642.011H77.8978C73.2384 632.814 68.5491 623.638 63.8301 614.483C30.4581 549.465 -2.27994 485.673 -11.3932 425.406C-31.8563 290.169 66.5567 172.729 543.415 99.1389C877.447 47.5903 959.974 -29.2134 912.546 -111.3H913.211Z" fill="black"/>
<path d="M927.879 -111.3C962.753 -35.5323 870.73 36.425 545.776 89.6579C64.978 168.42 -37.6658 279.918 -16.7762 407.839C-7.05772 467.357 29.3925 530.446 66.9465 595.443C75.858 610.866 84.8156 626.397 93.5225 642.011H93.1363C84.4698 626.446 75.5295 610.97 66.6468 595.596C29.0783 530.572 -7.38629 467.461 -17.1135 407.896C-38.0319 279.794 64.661 168.159 545.733 89.3505C870.13 36.2105 961.998 -35.6382 927.179 -111.3H927.879Z" fill="black"/>
<path d="M941.528 -111.3C962.348 -41.5645 861.437 25.7556 548.095 79.8695C62.7461 163.687 -44.0999 270.277 -22.9134 391.701C-12.679 450.343 27.4199 512.486 69.1761 577.187C82.9498 598.528 96.9021 620.151 110.022 642.016H109.621C96.5303 620.205 82.6154 598.639 68.8764 577.352C27.1029 512.628 -13.0133 450.472 -23.2564 391.765C-44.4746 270.163 62.4262 163.434 548.043 79.5673C860.834 25.5438 961.585 -41.6678 940.799 -111.3H941.528Z" fill="black"/>
<path d="M953.533 -111.3C959.43 -47.1755 850.29 15.8019 550.417 70.0785C60.2197 158.815 -50.7737 261.248 -29.4085 376.751C-18.7447 434.424 24.9252 495.379 70.8662 559.511C90.1764 586.453 109.864 613.956 127.687 642.011H127.278C109.487 614.015 89.8306 586.572 70.5722 559.687C24.6111 495.529 -19.0617 434.548 -29.7515 376.813C-51.1513 261.132 59.8824 158.562 550.362 69.7737C849.696 15.5875 958.658 -47.2763 952.778 -111.3H953.533Z" fill="black"/>
<path d="M962.841 -111.3C953.618 -52.3681 837.492 6.51728 552.736 60.2902C57.3998 153.831 -57.663 252.744 -36.2114 362.829C-25.1786 419.449 21.9556 479.044 72.0497 542.386C97.519 574.585 123.749 607.766 146.394 642.011H145.982C123.366 607.833 97.1847 574.72 71.7615 542.572C21.6443 479.202 -25.5072 419.583 -36.5572 362.896C-58.0435 252.625 57.0742 153.576 552.675 59.9776C836.887 6.31318 952.855 -52.4663 962.138 -111.3H962.841Z" fill="black"/>
<path d="M968.747 -111.3C944.779 -57.1396 823.298 -2.12928 555.058 50.5018C54.3447 148.742 -64.7388 244.671 -43.2756 349.803C-31.9431 405.31 18.5546 463.41 72.7586 525.772C105.018 562.89 138.589 601.517 166.001 642.011H165.589C138.209 601.589 104.69 563.027 72.479 525.971C18.2519 463.58 -32.2717 405.452 -43.6186 349.873C-65.1192 244.554 54.0104 148.492 554.998 50.2021C822.701 -2.3282 943.871 -57.2378 967.847 -111.3H968.747Z" fill="black"/>
<path d="M970.334 -111.3C932.728 -61.5184 808.007 -10.2023 557.372 40.7134C51.0415 143.57 -71.9934 236.97 -50.5763 337.561C-38.9988 391.923 14.7556 448.416 73.0119 509.634C112.653 551.296 154.366 595.144 186.308 642.011H185.887C153.976 595.224 112.327 551.441 72.7439 509.843C14.4559 448.592 -39.3274 392.07 -50.9193 337.631C-72.3767 236.856 50.7072 143.32 557.309 40.4085C807.414 -10.3987 931.867 -61.6114 969.475 -111.3H970.334Z" fill="black"/>
<path d="M968.05 -111.3C918.333 -65.5433 791.926 -17.7819 559.693 30.9224C47.5406 138.318 -79.4024 229.584 -58.0747 325.998C-46.3041 379.2 10.6005 434.001 72.8456 493.943C120.424 539.761 171.1 588.59 207.152 642.011H206.729C170.702 588.675 120.098 539.916 72.5834 494.162C10.3065 434.184 -46.6269 379.355 -58.4148 326.065C-79.7886 229.473 47.2006 138.073 559.627 30.6201C791.341 -17.9679 917.442 -65.6337 967.124 -111.3H968.05Z" fill="black"/>
<path d="M960.712 -111.3C901.052 -69.2556 775.423 -24.9379 562.011 21.134C43.8548 133.004 -86.9503 222.472 -65.7494 315.036C-53.829 367.071 6.11336 420.118 72.2753 478.67C128.301 528.252 188.776 581.788 228.359 642.011H227.933C188.373 581.878 127.984 528.415 72.0275 478.895C5.82516 420.309 -54.1518 367.233 -66.0895 315.109C-87.3336 222.366 43.5031 132.754 561.942 20.8291C774.835 -25.1316 900.248 -69.3486 959.845 -111.3H960.712Z" fill="black"/>
<path d="M949.011 -111.3C881.791 -72.7199 758.768 -31.7735 564.331 11.3456C39.9699 127.628 -94.6309 215.602 -73.5799 304.605C-61.5499 355.474 1.32065 406.723 71.3274 463.787C136.279 516.731 207.346 574.686 249.716 642.011H249.293C206.925 574.784 135.959 516.901 71.0881 464.017C1.0526 406.924 -61.867 355.639 -73.92 304.675C-95.0114 215.497 39.6327 127.385 564.259 11.0433C758.2 -31.9646 880.909 -72.8078 948.045 -111.3H949.011Z" fill="black"/>
<path d="M932.621 -111.3C860.461 -75.9879 742.283 -38.3688 566.652 1.55719C35.9413 122.201 -102.423 208.932 -81.5368 294.641C-69.4319 344.355 -3.74256 393.775 70.0311 449.276C144.324 505.17 226.787 567.236 271.068 642.011H270.641C226.372 567.352 144.009 505.351 69.8005 449.519C-4.01636 393.977 -69.7431 344.533 -81.8769 294.718C-102.798 208.821 35.6157 121.963 566.6 1.24719C741.721 -38.56 859.6 -76.0783 931.647 -111.3H932.621Z" fill="black"/>
<path d="M912.571 -111.3C837.95 -79.1138 726.138 -44.7937 568.979 -8.22345C31.7688 116.734 -110.337 202.44 -89.6435 285.09C-77.4838 333.657 -9.08819 381.241 68.3688 435.114C152.38 493.548 247.02 559.395 292.223 642.011H291.797C246.599 559.506 152.066 493.726 68.144 435.365C-9.3591 381.458 -77.7979 333.854 -89.9807 285.17C-110.712 202.321 31.4286 116.494 568.895 -8.53346C725.582 -44.9823 837.102 -79.2042 911.588 -111.3H912.571Z" fill="black"/>
<path d="M889.638 -111.3C814.79 -82.1492 710.44 -51.0919 571.282 -18.0222C27.4606 111.221 -118.329 196.103 -97.8482 275.909C-85.6683 323.373 -14.6702 369.088 66.3866 421.283C160.439 481.842 268 551.128 313.044 642.011H312.635C267.585 551.247 160.133 482.039 66.1762 421.539C-14.9411 369.311 -85.9796 323.562 -98.1883 275.989C-118.718 195.995 27.1205 110.984 571.21 -18.3219C709.889 -51.2805 813.957 -82.2371 888.65 -111.3H889.638Z" fill="black"/>
<path d="M863.621 -111.3C790.87 -85.1304 695.394 -57.3359 573.607 -27.8106C23.0357 105.675 -126.42 189.906 -106.15 267.055C-93.9697 313.424 -20.4699 357.29 64.1002 407.764C168.476 470.054 289.678 542.412 333.44 642.011H333.034C289.26 542.539 168.176 470.256 63.8984 408.025C-20.7293 357.517 -94.2781 313.623 -106.49 267.138C-126.809 189.797 22.6957 105.445 573.529 -28.1154C694.861 -57.5271 790.017 -85.2079 862.58 -111.3H863.621Z" fill="black"/>
<path d="M835.622 -111.3C766.806 -88.0858 680.979 -63.5489 575.926 -37.599C18.4922 100.097 -134.595 183.83 -114.547 258.499C-102.384 303.799 -26.4862 345.817 61.5136 394.54C106.674 419.542 155.018 446.308 199.585 476.195C268.427 522.362 328.208 575.978 353.297 642.011H352.902C327.827 576.084 268.113 522.548 199.368 476.446C154.817 446.569 106.475 419.805 61.3148 394.811C-26.7456 346.058 -102.698 304.005 -114.892 258.587C-134.987 183.721 18.1521 99.8597 575.845 -37.8986C680.466 -63.7324 765.962 -88.1788 834.573 -111.3H835.622Z" fill="black"/>
<path d="M805.804 -111.3C742.671 -91.0489 667.278 -69.7697 578.246 -47.3874C13.852 94.4888 -142.849 177.859 -123.02 250.207C-110.892 294.462 -32.6914 334.652 58.6488 381.597C113.648 409.864 173.412 440.578 226.388 476.112C294.49 521.781 351.377 575.407 372.607 642.011H372.215C350.988 575.513 294.179 521.967 226.181 476.365C173.21 440.839 113.455 410.13 58.4644 381.868C-32.9421 334.89 -111.203 294.672 -123.36 250.292C-143.247 177.753 13.512 94.2563 578.148 -47.687C666.765 -69.966 741.83 -91.1497 804.735 -111.3H805.804Z" fill="black"/>
</g>
</svg>
